{"title":"The Secret of Kells-AC3-5,1-DVDRip-2009 Dutch","uid":5128092,"size":1166258373,"categoryP":"video","categoryS":"movies","magnet":"?xt=urn:btih:86f742be3c99d5dff4a4e6259ad658031bbf032c&amp;dn=The+Secret+of+Kells-AC3-5%2C1-DVDRip-2009+Dutch&amp;tr=udp%3A%2F%2Ftracker.openbittorrent.com%3A80&amp;tr=udp%3A%2F%2Fopen.demonii.com%3A1337&amp;tr=udp%3A%2F%2Ftracker.coppersurfer.tk%3A6969&amp;tr=udp%3A%2F%2Fexodus.desync.com%3A6969","seeders":0,"leechers":1,"uploader":"FatFreddy31","files":3,"time":1255789627,"description":" &lt;a href=&quot;http://www.imdb.com/title/tt0485601/&quot; rel=&quot;nofollow&quot; target=&quot;_NEW&quot;&gt;http://www.imdb.com/title/tt0485601/&lt;/a&gt;\n &lt;a href=&quot;\nhttp://www.moviemeter.nl/film/49221&quot; rel=&quot;nofollow&quot; target=&quot;_NEW&quot;&gt;\nhttp://www.moviemeter.nl/film/49221&lt;/a&gt;\n\nUser Rating:7.7/10 - 122 votes\n\nAlternatieve titel: Brendan and the Secret of Kells \n\nBelgiÃƒÂ« / Ierland / Frankrijk\nAnimatie\n80 minuten\n\nGeregisseerd door Tomm Moore en Nora Twomey\nMet de stemmen van Evan McGuire, Christen Mooney en Brendan Gleeson.\n\nIerland, negende eeuw. Brendan, een opgewekte en goedlachse weesjongen van 12 leeft in de abdij van Kells dat verscholen ligt in een verlaten groene vallei. Hij wordt er streng opgevoed door zijn oom, de abt Cellach, die de abdij met ijzeren hand leidt. Op een dag ontmoet hij de oude broeder Aidan. Deze ietwat vreemde man is een meester in het illustreren en houdt een buitengewoon, nog onvoltooid boek in bewaring. Enthousiast en begeesterd door deze ontmoeting laat Brendan zich meeslepen door de lokroep van de creativiteit en verbeelding. Hij heeft slechts nog ÃƒÂ©ÃƒÂ©n doel voor ogen: zelf meester illustrator worden en het waardevolle boek van Kells afwerken. Hij weet uiteindelijk te ontsnappen aan de sterke greep van zijn oom en waagt zich buiten de muren van Kells..\n\nInfo:\n\nGeneral\nComplete name                    : The Secret of Kells-AC3-5,1-DVDRip-2009 Dutch.avi\nFormat                           : AVI\nFormat/Info                      : Audio Video Interleave\nFile size                        : 1.09 GiB\nDuration                         : 1h 15mn\nOverall bit rate                 : 2 061 Kbps\nWriting application              : VirtualDubMod 1.5.4.1 (build 2178/release)\nWriting library                  : VirtualDubMod build 2178/release\n\nVideo\nID                               : 0\nFormat                           : MPEG-4 Visual\nFormat profile                   : Simple@L3\nFormat settings, BVOP            : No\nFormat settings, QPel            : No\nFormat settings, GMC             : No warppoints\nFormat settings, Matrix          : Default (H.263)\nCodec ID                         : XVID\nCodec ID/Hint                    : XviD\nDuration                         : 1h 15mn\nBit rate                         : 1 603 Kbps\nWidth                            : 704 pixels\nHeight                           : 400 pixels\nDisplay aspect ratio             : 16:9\nFrame rate                       : 25.000 fps\nResolution                       : 24 bits\nColorimetry                      : 4:2:0\nScan type                        : Progressive\nBits/(Pixel*Frame)               : 0.228\nStream size                      : 865 MiB (78%)\nWriting library                  : XviD 1.1.2 (UTC 2006-11-01)\n\nAudio\nID                               : 1\nFormat                           : AC-3\nFormat/Info                      : Audio Coding 3\nCodec ID                         : 2000\nDuration                         : 1h 15mn\nBit rate mode                    : Constant\nBit rate                         : 448 Kbps\nChannel(s)                       : 6 channels\nChannel positions                : Front: L C R, Surround: L R, LFE\nSampling rate                    : 48.0 KHz\nStream size                      : 242 MiB (22%)\nAlignment                        : Split accross interleaves\nInterleave, duration             : 40 ms (1.00 video frame)\nInterleave, preload duration     : 500 ms\nLanguage                         : Nederlands/Vlaams.\n\nVeel plezier met deze film.","torrent":{"xt":"urn:btih:86f742be3c99d5dff4a4e6259ad658031bbf032c","amp;dn":"The+Secret+of+Kells-AC3-5%2C1-DVDRip-2009+Dutch","amp;tr":["udp%3A%2F%2Ftracker.openbittorrent.com%3A80","udp%3A%2F%2Fopen.demonii.com%3A1337","udp%3A%2F%2Ftracker.coppersurfer.tk%3A6969","udp%3A%2F%2Fexodus.desync.com%3A6969"],"infoHash":"86f742be3c99d5dff4a4e6259ad658031bbf032c","infoHashBuffer":{"type":"Buffer","data":[134,247,66,190,60,153,213,223,244,164,230,37,154,214,88,3,27,191,3,44]},"announce":[],"urlList":[]}}